<?xml version="1.0" encoding="UTF-8"?><svg id="Layer_2" xmlns="http://www.w3.org/2000/svg" xmlns:xlink="http://www.w3.org/1999/xlink" viewBox="0 0 168.7326 134.266"><defs><clipPath id="clippath"><rect y="121.2738" width="168.7326" height="12.9922" style="fill:none;"/></clipPath></defs><g id="Components"><g id="_0a9c8076-757d-4bee-9943-52c241a1ed87_1"><path d="M111.6467,87.8322c.0638-.0254.1144-.0633.1587-.1202.0064-.0127.019-.0254.038-.0696.9448-2.0232,1.8201-4.1734,2.5999-6.3932.038-.1013.057-.1587.057-.2157,0-.1524-.1076-.279-.26-.3106-.0506-.0063-.1075,0-.222.019-2.2383.3934-4.5468.7419-6.8741,1.0398-.0506,0-.076.0133-.1075.0195-.0823.0253-.1461.0886-.184.1645-.0064.0191-.0191.0443-.0317.1018-.5326,2.137-1.1162,4.2556-1.7438,6.2978-.0316.1013-.0442.1519-.0442.203,0,.1456.1075.2663.2536.2979h.0443c.0379,0,.0822-.0064.1582-.019v-.1018h-.0064l.0127.1018c2.0737-.2916,4.1159-.6343,6.0753-1.0024.0379-.0063.057-.0126.0823-.019l-.0063.0064Z" style="fill:#ef4623;"/><path d="M77.9929,92.9884l.019-.0759-.057-.0316-.0444-.0443-.0507.0253c-2.1307-.1208-4.2614-.2794-6.3604-.4882-.1014-.0064-.1522-.0133-.2029,0-.1459.0379-.241.1645-.241.3105,0,.0506.019.1076.0571.203.3932,1.0719.818,2.1819,1.2683,3.2981.019.0443.0254.0633.0379.0886.0381.0633.1014.1076.1712.1334.0191.0063.0444.0127.0951.019,1.6805.2346,3.4243.4245,5.3331.5768h.1648c.1269-.0253.222-.1265.241-.2536.0064-.0443,0-.0886-.0064-.1777-.1458-1.1858-.2854-2.3717-.4248-3.5834Z" style="fill:#ef4623;"/><path d="M77.3014,89.9634s.0507,0,.0761-.0064c.1205-.0316.2157-.1265.2346-.2472.0064-.0443,0-.0887,0-.1714-.2093-2.0548-.4122-4.1791-.5898-6.3105,0-.0632-.0063-.0949-.019-.1328-.0317-.0954-.1078-.1714-.2093-.2031-.0317-.0126-.0698-.0126-.1332-.0126-1.6297-.0828-3.3039-.1967-5.1239-.3554-1.0146-.0823-2.0546-.1777-3.1834-.2916-.1014-.0127-.1522-.0127-.1966,0-.1332.0317-.2409.1461-.2473.2853,0,.0506.0127.1081.038.1967.0444.165.0889.3232.1332.4882.501,1.9156,1.0654,3.8433,1.7312,5.9044.0127.0385.0191.0638.0317.0891.038.0696.1014.1265.1839.1461.0254.0063.0507.0127.1014.019,2.2512.2536,4.6356.4566,7.0834.6022h.0951-.0064Z" style="fill:#ef4623;"/><path d="M100.3593,92.3672c-.0512-.0127-.1081-.0063-.2157,0-2.0991.2094-4.2425.3738-6.3542.482l-.0765-.019-.019.0443-.0443.019.019.0696c-.1392,1.199-.2726,2.3975-.4245,3.596-.0132.0828-.0132.1207-.0069.165.0195.1271.1145.2283.2415.2536h.0633c.0317,0,.0633,0,.1139-.0063,1.896-.1519,3.6403-.3422,5.3333-.5768.0443,0,.0633-.0127.0823-.019.0696-.019.1334-.0701.1714-.1334.0126-.019.019-.038.0379-.0886.4503-1.1162.8752-2.2198,1.2681-3.2918.0384-.1012.0574-.1523.0574-.203,0-.1461-.1017-.279-.2409-.3106l-.0063.019Z" style="fill:#ef4623;"/><path d="M85.8321,90.2233c1.6616,0,3.3294-.0317,4.9528-.0886.0633,0,.095,0,.1329-.0127.1017-.0253.1777-.1017.2093-.1966.0127-.0317.0127-.0702.0191-.1335.2536-2.4418.4503-4.4586.6153-6.342.0063-.076.0126-.1208,0-.165-.0254-.1202-.1144-.2157-.2283-.241-.0443-.0126-.0891-.0063-.165-.0063-1.7753.0633-3.6398.0886-5.5423.0886-1.7503,0-3.5639-.0317-5.5424-.0886-.0761,0-.1205,0-.1649.0063-.1204.0317-.2093.1271-.2346.2473-.0063.0443,0,.0891,0,.165.1649,1.8834.3551,3.894.6151,6.3421,0,.0632.0127.0954.0254.1334.0317.0949.1142.1713.2157.1967.038.0063.0697.0127.1332.0127,1.6296.0569,3.2911.0886,4.9462.0886l.0127-.0064Z" style="fill:#ef4623;"/><path d="M105.6805,73.6384c.3365-1.9346,1.3002-3.7358,2.7081-5.074l.7862-.7482c1.3698-1.3002,3.0693-2.1308,4.9337-2.4038,1.4395-.2157,2.7519-.4182,4.0269-.6401.0506-.0064.0822-.0127.1138-.0258.0828-.0317.1461-.1012.1777-.1835.0063-.0254.0127-.0512.0254-.1144.1586-1.1479.2915-2.2199.3997-3.2787v-.1334c-.425-1.6746-1.237-4.002-2.7334-5.6066-.0254-.0253-.038-.0379-.057-.0569-.0506-.0379-.108-.0638-.1713-.0701h-.0759c-1.4648.108-3.0187.2093-5.0477.3301-.0638,0-.0954,0-.1271.019-.1012.0317-.1776.1138-.2093.2093-.0127.038-.0127.0696-.019.1392-.0696,1.8776-.1714,3.6219-.3042,5.334-.1777,2.2198-1.1733,4.3062-2.8157,5.8665-.7545.7108-1.6172,1.2876-2.5684,1.7189-.9385.4186-1.9404.6723-2.987.7609-1.991.165-3.963.2921-5.8654.3807-.0639,0-.0954,0-.1335.0126-.1012.0317-.1776.1081-.2093.2094-.0127.0379-.0127.0696-.0127.1334-.1392,2.841-.3295,5.8349-.5832,9.171,0,.0696-.0063.1075,0,.1519.0254.1207.1202.2157.2346.2409.0254,0,.0443.0064.076.0064h.0949c3.044-.1709,6.1196-.4313,9.132-.7736l.0506.019.0379-.0379.0575-.0317-.0127-.0638c.3928-1.7247.7608-3.5638,1.1031-5.4795l-.0254.0191Z" style="fill:#ef4623;"/><path d="M53.4024,37.5261c-.0825.0317-.1459.1014-.1775.1839-.0128.0318-.0128.0571-.0254.1142-.1586,1.1606-.2917,2.2324-.3996,3.2789v.1268c.4249,1.668,1.2303,4.0019,2.7332,5.6129.0254.0254.038.038.0571.0507.0507.038.1077.0634.1711.0698h.0761c1.4649-.1078,3.0629-.2093,5.0415-.3298.0634,0,.1014,0,.1395-.0191.1014-.0317.1775-.1141.2093-.2093.0127-.038.0127-.0761.0127-.1396.0761-1.8836.1712-3.6277.3044-5.3338.1775-2.2198,1.1732-4.3063,2.8156-5.8665.7546-.7104,1.6171-1.2875,2.5683-1.7188.9385-.4185,1.9405-.6786,2.9868-.761,1.9912-.1649,3.9634-.2917,5.8722-.3806.057,0,.0951,0,.1268-.0127.1014-.0316.1775-.1078.2093-.2093.0127-.038.0127-.0698.019-.1396.1396-2.8096.3298-5.8095.5835-9.1582,0-.0761.0127-.1204,0-.1648-.0254-.1205-.1205-.2157-.2346-.241-.0444-.0127-.0888-.0063-.1648,0-2.9805.1649-5.999.4186-8.9795.7547-.0507,0-.0761.0064-.1078.0191-.0824.0254-.1522.0888-.1902.1648-.0127.0317-.0191.0571-.0317.1078-.3741,1.6744-.7355,3.4629-1.0653,5.3338v.0191c-.3425,1.9217-1.3001,3.7038-2.7015,5.0294l-.7864.7483c-1.3698,1.3002-3.0693,2.131-4.9336,2.4037-1.4269.2093-2.7395.4186-4.0268.6406-.0508.0064-.0762.0127-.1078.0254h.0063Z" style="fill:#ef4623;"/><path d="M64.6185,20.4654c.0825-.0254.1459-.0888.1839-.1649.0127-.0254.019-.0507.0317-.1014.5263-2.1247,1.1161-4.2429,1.7439-6.2915.0317-.1014.0507-.1585.0443-.2093,0-.1459-.1077-.2727-.2536-.298-.0507-.0128-.1015,0-.2093.0126-2.0736.2917-4.1156.6343-6.0752,1.0021-.0379.0063-.0633.0127-.0824.0191-.0634.0254-.1141.0634-.1522.1204-.0127.0191-.0191.0381-.038.0762-.9386,2.0232-1.8137,4.1732-2.6,6.3929-.038.1014-.0571.1585-.0571.2157,0,.1522.1078.2791.2601.3107h.0443c.0444,0,.0951-.0063.1775-.0254l-.0126-.1014.019.1014c2.2385-.3932,4.5468-.742,6.8804-1.0402.0444,0,.0762-.0126.1015-.019h-.0064Z" style="fill:#ef4623;"/><path d="M71.2962,9.912s.0444.0064.0698.0064c.0379,0,.0824,0,.1458-.0128,2.0863-.2093,4.2234-.3742,6.3414-.4819l.038.0254.1205-.0888-.0191-.0571c.1396-1.1987.2728-2.3972.4249-3.5899.0127-.082.0127-.1201.0064-.1707-.0255-.1268-.1206-.2288-.241-.2536-.0444-.0133-.0888,0-.1776,0-1.896.1516-3.64.3423-5.3267.5768-.0444.0067-.0698.0124-.0889.0191-.0697.0248-.1331.0696-.1711.1335-.0127.0191-.0191.0372-.0381.082-.4438,1.1036-.8687,2.2071-1.2682,3.3043-.038.0951-.0507.1459-.0507.1967,0,.1458.1014.279.2409.3107h-.0063Z" style="fill:#ef4623;"/><path d="M127.8114,53.0203c.0126.0443,1.2554,4.6106.919,10.0399-.0253.3611-.0253.4819,0,.5515.0448.0949.1334.165.2346.1777.1018.019.2094-.019.2794-.0954.0506-.057.0823-.1709.1708-.4946.806-2.9047,1.7632-7.6234,1.7699-13.6483v-.0508c.0439-1.5157-.1087-3.1076-.4567-4.8708-.3242-1.5665-.8565-3.1901-1.5795-4.8137-1.4457-3.1901-3.684-6.0632-6.487-8.3146-2.7777-2.2452-6.1638-3.9005-9.7784-4.7884-1.7759-.4503-3.6467-.6977-5.5554-.7484-1.991-.038-3.9572.1522-5.8148.5771-3.6467.8182-7.2421,2.5496-10.381,5.0104-2.6702,2.0675-5.0607,4.6171-7.3119,7.7882-1.8136,2.5749-3.4179,5.4163-4.8955,8.6952-2.3147,5.1369-4.8703,9.0504-7.5971,11.6124-3.139,2.9427-6.3985,4.186-10.5521,4.0336-2.2576-.1013-4.3693-.5705-6.2781-1.3952-2.08-.9069-3.9571-2.2325-5.5741-3.9319-.8118-.831-1.5854-1.8143-2.2957-2.9174-.6404-.9644-1.2176-2.0679-1.8262-3.463-.3742-.9006-.704-1.8329-.9767-2.7715-.2029-.7991-1.2112-5.0421-.9068-10.0018.019-.3614.0317-.4819,0-.5517-.0444-.0951-.1331-.1649-.2346-.1775-.1078-.0191-.2093.019-.279.0951-.0508.0571-.0825.1523-.1776.4947-.8054,2.9111-1.7693,7.6424-1.7693,13.6804-.038,1.4964.1142,3.0883.463,4.883.3298,1.5919.8561,3.2159,1.5727,4.8204,1.4522,3.2027,3.6971,6.0821,6.4936,8.3273,2.7776,2.2452,6.1575,3.9066,9.7849,4.7946,1.7503.4376,3.621.6912,5.5615.7487h.4376c1.8771,0,3.6906-.1967,5.3839-.5901,3.6209-.8056,7.2102-2.5367,10.3809-5.0165,2.6633-2.0679,5.0541-4.6173,7.3053-7.7947.9386-1.3446,1.8392-2.7845,2.6823-4.2936.8057-1.4653,1.5413-2.9491,2.2004-4.408,2.2957-5.1308,4.8451-9.0376,7.5907-11.6189,3.152-2.9555,6.3985-4.1986,10.565-4.0399,2.2515.1014,4.369.5707,6.2846,1.4016,2.0796.9006,3.9566,2.2261,5.5802,3.9385,1.6551,1.7251,3.0376,3.8751,4.1154,6.3929.3554.8436.666,1.7378.9581,2.7209l-.0063.0127Z" style="fill:#ef4623;"/><path d="M55.196,27.7019c-.5326,2.0675-1.0019,4.1922-1.3887,6.3231-.019.0889-.0254.1396-.019.1839.019.1396.1268.2474.26.2664.0507.0064.0951,0,.1965-.019,2.4542-.3996,5.0034-.7611,7.8064-1.1036.0571-.0063.0888-.0127.1204-.0191.0889-.0317.1586-.1014.1903-.1839.0127-.0317.019-.0634.0254-.1204.4312-3.095.9639-6.152,1.5917-9.0884.0191-.0951.0317-.146.0254-.1967-.0127-.1395-.1204-.2536-.2536-.2727-.0507-.0063-.1015,0-.1966.0127-1.5347.2093-3.0439.4439-4.4771.6913-1.2937.2157-2.5872-.241-3.4561-1.2177-.6214-.6977-.9703-1.5983-.9703-2.5433,0-.4503.0761-.8879.2283-1.3002.1205-.3298.2473-.666.3741-.9893.2917-.7738.6151-1.5665.9703-2.4228.0443-.1078.0254-.2346-.0508-.3234-.0761-.0888-.1965-.1332-.3107-.1078-.0633.0191-.1014-.0317-.1077-.0444-.0064-.0127-.0317-.0697.0127-.1205,1.319-1.4587,2.9932-3.0569,4.978-4.7566.6025-.3678,1.2303-.7357,1.8771-1.0909-.2917.4883-.5517.9513-.7989,1.3953-.0191.0316-.0254.0507-.0317.0571-.0443.1014-.0317.2156.0317.3044.057.0825.1522.1332.2536.1332.019,0,.0317,0,.0888-.0128,1.8517-.3043,3.5957-.5644,5.3458-.7864.0507,0,.0761-.0127.0951-.0191.0761-.0254.1395-.0761.1775-.1395.0127-.0254.0254-.0507.0381-.0951.3614-1.0464.7293-2.0675,1.1034-3.0379.0443-.1082.0634-.1645.0634-.2217,0-.1525-.1141-.2917-.2664-.3175-.057-.0067-.1078,0-.2282.0257-.0571.0124-.1205.0248-.1775.0315.2916-.1144.577-.2288.8624-.3366,8.0156-2.9746,16.678-3.7478,25.055-2.2453l.425.0705c2.8093.532,5.5927,1.3252,8.2756,2.3587.0063,0,.0316.0133.0253.0448,0,.0124-.019.0315-.0443.0248-.089-.0191-.184.0133-.2409.083-.0575.0696-.0765.1649-.0448.2469.3934,1.0341.793,2.1249,1.1858,3.2539.0132.038.0258.0698.0385.0951.0379.0698.1013.1205.1771.1459.0258.0064.0511.0127.1017.0191,1.7501.222,3.507.4819,5.238.7737.1334.0254.1967.0318.2536.0191.1587-.0317.2663-.1902.2473-.3489-.0063-.057-.0379-.1141-.1013-.2346-.1397-.2473-.2794-.4947-.4123-.7357-.0696-.1268-.1334-.2346-.1397-.26,0-.0318.0063-.0634.0317-.0825.0195-.0254.0511-.0316.0828-.0316s.1392.0697.2599.1332c2.8347,1.6173,5.4853,3.5072,7.8823,5.6192.2346.2093.4693.4186.7039.6342-.7103-.1712-1.4648-.3488-2.2383-.5201-.1271-.0254-.184-.0443-.2473-.038-.1587.0255-.2732.1585-.2732.3235,0,.0571.0258.1141.0765.2346.6597,1.5665,1.2808,3.1966,1.8518,4.8708h-.0063l.019.0634c.1455.4186.2853.8372.4245,1.2685.0132.0444.0258.0634.0321.0825.038.0634.095.1205.1646.1459.019.0063.0442.0127.0891.0254,1.6297.3298,3.3102.6976,4.997,1.0972l.5009.1205c.3232.0761.647.1586.9829.241.1587.038.2346.057.2916.0444.0828-.0128.1587-.0635.203-.1269.3106.4503.6217.9006.9196,1.3636.4123.6279.8242,1.3002,1.2618,2.0613.0511.0824.0891.1523.0954.1776,0,.0254,0,.057-.019.0761-.019.0254-.0448.038-.0702.038-.0316,0-.1075-.0191-.1967-.0444-.2726-.0761-.5452-.1459-.8431-.2282-.0063,0-.019-.0064-.0442-.0255-3.2849-2.651-7.2612-4.6298-11.5099-5.727-.0254,0-.0379-.0064-.0506-.0127-.019-.0064-.0379-.0254-.0506-.0444,0-.0063-.0064-.019-.019-.0507-.1777-.5074-.3681-1.0465-.5711-1.5919-.6659-1.7758-1.3761-3.4755-2.0991-5.0358-.019-.0379-.0253-.057-.0379-.0761-.0379-.0571-.0949-.0951-.1519-.1204-.019-.0064-.0384-.0128-.0828-.0191-2.1117-.3933-4.0964-.7231-6.0748-1.0021-.108-.0127-.1586-.0254-.2093-.0127-.1461.0255-.2473.1523-.2536.2981,0,.0507.0126.1014.0442.203.5009,1.6109.9766,3.3106,1.4205,5.042.1076.4123.222.8373.3233,1.2622.0126.0443.019.0697.0316.0951.0064.0127.0127.0254.0254.0381h-.0316c-2.3016,0-4.5087.2473-6.5757.7293-1.2432.2728-2.524.6533-3.818,1.1289-.1138.038-.2282.0825-.3359.1269-.3422.1268-.7102.2791-1.1036.4503-.8874.3805-1.7626.7991-2.5873,1.243-.0633.0317-.1139.0634-.1265.0634-.0506.0064-.095-.019-.1145-.0634,0-.0127-.0126-.0698-.019-.1459-.0316-.4123-.0632-.8245-.0949-1.2241,0-.0697,0-.1332-.0127-.1966,0-.0634-.0063-.0951-.019-.1332-.0317-.1014-.1144-.1775-.2157-.2029-.0379-.0128-.0696-.0128-.1397-.0128-1.9847-.0634-3.9567-.1014-5.8466-.1014-.8181,0-1.6615,0-2.4859.0191h-.0888c-1.598,0-3.1327-.6469-4.2298-1.7885l-.8243-.8563c-.7103-.7356-1.0717-1.7504-.9767-2.7842v-.0318c.1839-1.9027,1.0464-3.6657,2.4415-4.9659l.3171-.2981c1.4395-1.3446,3.2975-2.0866,5.238-2.0929h.5962c1.5029,0,3.0247.0254,4.5152.0634.0823,0,.1266,0,.1646-.0064.1207-.0317.2093-.1268.2283-.2536.0063-.0444,0-.0825-.0064-.1649-.1202-1.0591-.2599-2.1879-.4181-3.4568-.0064-.0572-.0133-.0944-.0258-.1268-.038-.0944-.1139-.1649-.2089-.1897-.0321-.0133-.0701-.0133-.127-.0133-1.5665-.0629-2.879-.0944-4.1283-.0944-1.3571,0-2.7079.0315-4.1282.0944-.0634,0-.0951,0-.1269.0133-.0951.0248-.1711.0953-.2093.184-.0127.0315-.019.0629-.0254.1325-.1268.818-.3741,1.5986-.7419,2.3279-.3995.7928-.9385,1.5158-1.6044,2.1437l-.7039.6659c-1.2746,1.186-2.936,1.9218-4.68,2.0612-1.3126.1078-2.4478.2157-3.4814.3362-.0507,0-.0761.0127-.1014.019-.0761.0254-.1396.0761-.1776.1459-.0127.0191-.019.0444-.038.0951-.6721,2.0739-1.2937,4.2239-1.858,6.3866-.0254.0951-.038.1459-.038.1966.0063.1395.1077.2537.2473.2854.0507.0126.1014,0,.1965,0,1.5093-.1523,3.0503-.2917,4.7245-.4186,1.7375-.1332,3.4433.5137,4.6609,1.7758,1.0654,1.1036,1.6488,2.5369,1.6488,4.0527,0,.1331,0,.2663-.0127.4059l-.0444.6849c-.0318.4631-.0634.9259-.0888,1.3826-.1205,1.8456-.9068,3.5771-2.2195,4.8899l-.279.2791c-1.3001,1.3002-3.0123,2.0802-4.8195,2.207-2.302.1649-4.5658.3615-6.7156.5899-.0571,0-.0888.0127-.1205.019-.0888.0317-.1648.1015-.1966.1967-.0127.0318-.0127.0634-.019.1205-.3678,3.2028-.6215,6.5008-.7483,9.8114v.1585c.0254.1142.1205.203.2346.2346.0444.0128.0824.0064.1586,0,1.021-.0507,2.0483-.1014,3.082-.1395.0951,0,.1902-.0063.2092,0,.0255.0127.0444.0317.0571.0571.0127.0254.0127.057,0,.0824-.0063.0191-.0698.0762-.1459.146-3.2468,3.0315-6.2843,4.2873-9.0365,3.7228-1.8326-.3742-3.4117-1.503-4.6863-3.355-.0635-.0951-.1269-.1903-.1967-.2917-.4248-.666-.7927-1.3699-1.097-2.0866-1.1542-2.6828-1.8074-6.1456-1.8898-10.008-.0379-2.169.0825-4.4141.3615-6.6783.0825-.6723.1902-1.3699.3043-2.0739.1459-.8942.3171-1.8202.5264-2.7526.0064-.0443.0127-.0697.019-.0824.0128-.0317.0508-.0571.0889-.0571,0,0,.0317,0,.0697.0127.1523.0318.3044.0698.463.1205.6469.2093,1.2239.5835,1.6805,1.0972.6341.7167.9892,1.6299.9892,2.5812,0,.3488-.038.666-.1205.983v.0064ZM122.6878,81.3061l.0253-.0569c.2985-.7419.5838-1.5223.8626-2.3337.3997-1.1669.7355-2.2895,1.0398-3.4184.85-3.1267,1.3889-6.2345,1.6109-9.241.0823-1.1225.1207-2.156.1144-3.1647,0-1.3888-.0891-2.8156-.2668-4.2366-.1708-1.5028-.4308-2.9364-.7799-4.2557-.2916-1.1352-.647-2.2068-1.065-3.1898-.9322-2.1881-2.1245-4.0591-3.5576-5.5496-1.3698-1.4333-2.9301-2.5368-4.6484-3.2852-1.5856-.6913-3.3545-1.0845-5.257-1.167-.1967-.0063-.3871-.0127-.5774-.0127-1.4269,0-2.7013.2093-3.8744.6469-1.4015.5265-2.7265,1.3826-4.0522,2.6321-2.4286,2.2768-4.8256,5.9871-6.9437,10.7183-.7102,1.5792-1.4843,3.1268-2.3021,4.611l-.0127.0254c-.0569.1075-.1207.2093-.1903.3232-.8431,1.4843-1.7121,2.8605-2.6506,4.2114-.666.9512-1.3509,1.8391-2.0801,2.7144-.8942,1.0846-1.8389,2.1181-2.8155,3.0698-.9449.9259-1.9468,1.8012-2.9805,2.6063-1.0082.7805-2.0039,1.4717-2.974,2.0612-.9576.5901-1.9531,1.1162-2.9552,1.5792-.6468.3048-1.338.5964-2.1117.8816-1.1224.4249-2.2893.7677-3.4688,1.034-1.059.2473-2.1942.425-3.3483.5326h-.0317c-1.0464.1017-2.099.1397-3.1517.1207-2.1688-.0632-4.2424-.3427-6.1639-.831-1.858-.4566-3.6716-1.1036-5.3965-1.9087-2.0102-.9454-3.8556-2.0996-5.4917-3.4252-2.7078-2.1687-4.9844-4.9148-6.5951-7.9466-.2537-.4756-.4946-.9575-.7102-1.4394-.241-.5394-.501-1.256-.7673-2.0806-.0254-.0633-.0444-.1329-.0634-.1898,0-.0258-.0063-.0385-.0127-.0512-.2727-1.2617-.501-2.5304-.6722-3.7674-.5898-4.3126-.5771-8.6885.0381-12.995.5961-4.2239,1.7503-8.3464,3.4371-12.2658l.2727-.6216c1.7249-3.8751,3.9507-7.4901,6.6077-10.7437.1712-.2157.3551-.4313.5391-.6533-.2663.6215-.6976,1.687-1.1921,3.1141-.3996,1.1795-.742,2.2958-1.0401,3.4184-.8497,3.1204-1.3887,6.2281-1.6107,9.2406-.0825,1.1288-.1205,2.1626-.1141,3.1647,0,1.3889.0888,2.816.2663,4.2366.1648,1.4587.4312,2.8919.78,4.2556.2917,1.1353.6469,2.2134,1.059,3.1901.9322,2.1883,2.1308,4.0591,3.5639,5.5497,1.3698,1.4332,2.9297,2.5367,4.6482,3.2849,1.5854.6912,3.3546,1.0846,5.2571,1.1669,1.6551.0638,3.12-.1456,4.4517-.6338,1.4015-.5268,2.7268-1.383,4.0521-2.6321,2.4288-2.2831,4.8259-5.9872,6.9439-10.7184.7102-1.5793,1.4839-3.1331,2.2956-4.5982l.0191-.038c.0634-.1141.1268-.2157.1839-.3234.8497-1.4904,1.7185-2.8668,2.6506-4.2113.6659-.945,1.3444-1.8329,2.08-2.7145.8878-1.0845,1.839-2.112,2.8156-3.0696.9449-.926,1.9468-1.8013,2.9802-2.6067,1.0023-.7801,2.0041-1.4714,2.9743-2.0612.9639-.5899,1.9593-1.1226,2.9554-1.5793.6528-.3107,1.3441-.5961,2.1112-.8815,1.1289-.4249,2.2958-.7737,3.469-1.0338,1.0593-.2473,2.1877-.4249,3.3482-.5328h.0317c1.0529-.1014,2.1054-.1395,3.152-.1205,2.1624.0634,4.2356.3425,6.1638.8309,1.8576.4566,3.6715,1.1035,5.3962,1.909,2.0105.9449,3.856,2.0992,5.4922,3.4247,2.7076,2.1691,4.9843,4.9153,6.595,7.9469.2536.4757.4939.964.7103,1.446.2403.5391.5072,1.2557.7675,2.0738.0248.0634.0505.1332.0629.1966.2851,1.2875.5072,2.5687.6788,3.8181.5835,4.3063.5701,8.6634-.0257,12.9569l-.0124.0449c-.6283,4.4454-1.8706,8.7775-3.7034,12.8808-1.6615,3.7162-3.7606,7.1794-6.2461,10.2998l-.3744.463c-.0443.0569-.0696.0886-.076.0949-.0505.0575-.1144.0254-.127.019-.019-.0126-.0696-.0442-.0443-.1202,0-.0126.0127-.0379.0317-.0828v-.0063ZM110.9754,91.9803l-.0828-.0696c-.4371.2726-.881.5326-1.3187.7862-.1207.0696-.2282.1271-.2536.1334-.0317,0-.0638-.0063-.0828-.0316-.0254-.0253-.0317-.0511-.0317-.0828,0-.0254.0638-.1265.1398-.26.1586-.2789.3168-.5641.4756-.8436l.0316-.057c.0443-.1013.0317-.2157-.0316-.3042-.0569-.0828-.1524-.1334-.2536-.1334-.019,0-.0317,0-.0891.0127-1.8576.3111-3.6081.5647-5.3581.7867-.0443,0-.0633.0127-.0891.019-.0759.0254-.1392.076-.1771.1456-.0127.0258-.0254.0511-.0385.0954-.3675,1.0593-.7355,2.0801-1.1031,3.0439-.0379.1081-.0632.165-.0632.2157,0,.1524.1075.2921.2599.3111.0569.0063.1075,0,.2283-.0253.0632-.0127.1265-.0253.1834-.038-.2853.1139-.5768.2283-.8747.3359-8.0156,2.9744-16.6781,3.7484-25.0551,2.2451l-.0888-.0127c-2.9234-.5262-5.8151-1.3382-8.6054-2.4165-.0063,0-.038-.0127-.0254-.0443,0-.019.0127-.038.0507-.0253.0889.019.1839-.0127.241-.0891.0571-.0696.0761-.1645.0444-.2536-.3996-1.0335-.7927-2.1307-1.1858-3.2533-.0191-.0506-.0255-.0696-.0381-.0954-.038-.0696-.1014-.1202-.1775-.1455-.0191-.0063-.0444-.0127-.1014-.019-1.7503-.222-3.5132-.4819-5.238-.7741-.1332-.0253-.1967-.0317-.2537-.019-.1586.0317-.2727.1903-.2473.349.0064.0569.038.1139.1078.2346.1395.2473.279.4946.4185.7419.0697.1207.1395.2409.1458.2663,0,.0316-.0063.0638-.0317.0827-.0254.0253-.0507.0316-.0824.0316s-.1332-.0638-.2663-.1397c-2.8093-1.6045-5.46-3.4942-7.8824-5.6192-.241-.2157-.4819-.4313-.7229-.647.8243.203,1.5409.3743,2.2765.5393.1205.0254.1775.038.2346.0317.1585-.019.279-.1586.2727-.3237,0-.057-.0317-.1202-.0761-.2346-.6596-1.5666-1.281-3.2091-1.8517-4.8642h.0063l-.0254-.0702c-.1459-.4123-.2854-.8304-.4248-1.2617-.0128-.0512-.0254-.0702-.0317-.0891-.0317-.0696-.0951-.1202-.1648-.1455-.0191-.0064-.0444-.0127-.0888-.0254-1.6235-.3301-3.3039-.6981-4.9971-1.0973l-.3044-.0765c-.3868-.0949-.7673-.1903-1.1668-.2853-.1586-.0379-.2283-.0569-.2917-.0442-.0825.0127-.1586.0633-.2093.1329,0,0-.0063.0126-.0127.0126-.3171-.4566-.6278-.9132-.9322-1.3825-.4946-.7545-.983-1.5665-1.4648-2.4292.4058.1145.8181.222,1.2493.3365.0063,0,.0191.0063.0444.0253,3.2848,2.6512,7.2609,4.6301,11.5033,5.7273.0254.0064.0444.0127.0507.0127.0191.0127.0381.0254.0507.0443,0,.0127.0128.0253.0191.0506.2093.5964.3869,1.0973.5707,1.5918.6596,1.7696,1.3698,3.4631,2.0991,5.0361.019.0379.0254.0569.038.0759.038.057.0888.095.1585.1202.0191.0069.0381.0132.0825.0195,2.0674.3865,4.1093.7229,6.0815,1.0018.1014.0126.1522.019.2029.0126.1396-.0253.2473-.1524.2537-.2978,0-.0506-.0127-.1081-.0444-.2094-.5009-1.6235-.9639-3.2728-1.4205-5.0423-.0888-.3422-.1775-.6849-.2663-1.0335l-.0571-.222c-.0127-.0506-.0191-.0828-.0317-.1017-.0064-.0127-.0128-.0254-.0255-.0379h.0317c2.3019,0,4.5151-.2473,6.5761-.7293,1.2429-.2726,2.5238-.6533,3.8175-1.1289.1141-.0379.2282-.0823.3298-.1271.3551-.1328.7166-.2789,1.1034-.4503.8878-.3801,1.7629-.7988,2.5873-1.2428.0634-.0317.1141-.0638.1332-.0638.0507-.0127.0951.0194.1141.0638.0063.019.0127.0823.0191.1455.0317.4123.0633.8247.0951,1.2244,0,.0696,0,.1329.0064.1967,0,.0569.0063.0949.019.1329.0318.0954.1142.1776.2093.203.0317.0127.0698.0127.1395.0127,1.9912.0638,3.9571.1017,5.8468.1017.818,0,1.6612,0,2.4859-.019h.0886c1.5919,0,3.1326.647,4.2235,1.7885l.8247.8558c.7102.7361,1.0714,1.7505.9765,2.7846v.0317c-.184,1.9023-1.0466,3.6655-2.4418,4.9659l-.3169.2978c-1.4394,1.3446-3.2976,2.087-5.238,2.0933h-.5962c-1.4902,0-3.0122-.0253-4.515-.0638-.0825,0-.1268,0-.1712.0069-.1205.0316-.2093.1329-.2283.2536-.0063.0443,0,.0823.0064.1645.1204,1.072.26,2.2008.4248,3.4632.0064.0569.0127.0886.0254.1202.0317.0954.1142.165.2093.1904.0317.0063.0698.0127.1268.0127,1.56.0638,2.8727.0954,4.1283.0954,1.3633,0,2.7141-.0316,4.1283-.0954.0569,0,.095,0,.1265-.0127.0954-.0253.1714-.0949.2094-.184.0127-.0316.019-.0696.0254-.1329.127-.8183.3743-1.6045.7423-2.3279.3992-.7988.9449-1.5154,1.604-2.1434l.7039-.666c1.275-1.1858,2.9365-1.922,4.6801-2.0612,1.3382-.1144,2.4413-.2157,3.4752-.3364.0506,0,.076-.0063.1013-.019.076-.0254.1461-.076.1777-.1461.0127-.019.019-.0443.0379-.095.6722-2.08,1.3002-4.2303,1.8582-6.3864.0253-.089.0379-.1397.0316-.1967-.0063-.1397-.1075-.2599-.2472-.2857-.0506-.0127-.1013,0-.1967,0-1.5091.1524-3.0503.2921-4.7244.4186-1.7438.1271-3.4431-.5136-4.6606-1.7759-1.0656-1.0967-1.6488-2.5367-1.6488-4.0526,0-.1329,0-.2663.0127-.4055l.0442-.6786c.0317-.4634.0633-.9264.0886-1.383.1208-1.8391.907-3.5771,2.2199-4.8894l.2789-.2794c1.2998-1.2998,3.0118-2.0801,4.8194-2.2066,2.2894-.1587,4.5467-.3617,6.7217-.5901.0512,0,.0829-.0063.1144-.019.0887-.0317.1651-.1017.1967-.1904.0127-.0316.0127-.0632.0254-.1207.3675-3.2027.6211-6.5008.7482-9.8111v-.1586c-.0254-.1208-.1202-.2094-.2346-.2346-.0443-.0064-.0823-.0064-.1587,0-1.0272.0505-2.0543.1012-3.082.1397-.0949,0-.1898.0063-.2093,0-.0254-.0127-.0443-.0321-.057-.0575-.0126-.0253-.0126-.0569,0-.0822.0064-.0191.0702-.076.1461-.1461,3.247-3.0314,6.2904-4.2873,9.0365-3.7227,1.8328.3742,3.4115,1.5028,4.6864,3.3552.0632.0949.1265.1903.1966.2916.4245.666.7926,1.3698,1.0968,2.0864,1.1542,2.6828,1.8075,6.146,1.8897,10.0082.0379,2.1693-.0823,4.4144-.3611,6.6785-.0891.6723-.184,1.351-.3048,2.0738-.1455.8943-.3232,1.8201-.5262,2.7651-.0064.0379-.0127.0569-.019.0696-.0127.0321-.0506.0511-.0823.0575-.0127,0-.0317,0-.0765-.0127-.1519-.0317-.3042-.0702-.463-.1208-.6464-.203-1.2238-.5831-1.6805-1.0973-.6337-.7166-.9892-1.6361-.9892-2.581,0-.3427.0379-.666.1271-.9834.5326-2.0674,1.0018-4.1918,1.3888-6.3294.0127-.0822.0254-.1328.019-.1776-.019-.1329-.127-.2473-.2662-.2663-.0448-.0064-.0954,0-.1967.019-2.4545.3997-5.0096.7677-7.8253,1.1099-.0443,0-.0702.0063-.1018.019-.0886.0316-.1582.1017-.1903.184-.0127.0317-.019.0632-.0253.1207-.4308,3.1009-.9639,6.1581-1.5913,9.0882-.0191.0954-.0316.1461-.0254.1966.0127.1398.1202.2537.26.279.0442.0063.0949,0,.1961-.0127,1.5349-.2093,3.0376-.4439,4.4771-.6912,1.2939-.2157,2.5873.2409,3.4564,1.2117.6216.6976.9702,1.5982.9702,2.543,0,.4504-.076.888-.2283,1.3003-.1202.3295-.2473.666-.3744.9892-.2978.7867-.6148,1.5792-.9702,2.4228-.0442.1076-.0253.2346.0448.3233.076.089.1962.1334.3106.108.0696-.0126.1013.0317.1075.0443.0063.0127.0316.0696-.0127.1202-1.3124,1.4526-2.9864,3.0508-4.959,4.7381l.0575.0886h.0253ZM136.5252,44.3376s0-.0255-.0067-.0255c-.0829-.5962-.1707-1.1859-.2851-1.8138l-.0572-.3171c-.5072-2.8033-1.2366-5.5621-2.1814-8.1942-.0639-.1966-.1335-.3932-.2097-.5835l-.0629-.1712c-.0639-.1649-.1268-.3361-.1907-.4883-1.268-3.3043-2.8917-6.4944-4.8191-9.4816-2.5304-3.8942-5.587-7.4331-9.0876-10.5092-3.5955-3.1647-7.6222-5.8092-11.9659-7.8514-4.097-1.9411-8.4217-3.3169-12.8414-4.1034-7.7812-1.4015-15.9045-.9515-23.4826,1.2995-.5073.1525-1.0273.3175-1.5346.4824l-.0127-.0257-.0889.0572c-.1141.0381-.2346.0829-.3488.1211-.1205.0439-.2409.082-.3614.1268-.3171.1077-.6278.2155-.9449.3299-.5834.2155-1.1287.4309-1.6614.6531-.0444.0191-.0825.0315-.1268.0505-.0254.0124-.0507.0191-.0761.0315-.4694.1974-.9576.3995-1.4332.6216-.0761.0315-.1586.0696-.222.1077-.4756.2155-.9321.4376-1.3634.6474-.2536.1268-.501.2536-.7483.3804-.2536.1268-.5073.2536-.7673.3928-.0254.0133-.0507.0257-.0698.0381l-.0254.0191c-5.9355,3.1968-11.0975,7.465-15.3589,12.6974-2.8473,3.4882-5.219,7.3506-7.058,11.4794-1.9532,4.3634-3.2785,8.9932-3.9507,13.7562-.6468,4.6171-.6595,9.2914-.038,13.8955.0317.2605.0634.4951.1078.7361.1205.8178.2663,1.6678.4502,2.5177.4756,2.3912,1.1351,4.7692,1.9658,7.0776.0698.2094.1459.4187.2219.628l.0507.1334c.0634.1651.1268.3359.1902.4883,1.2683,3.3108,2.8917,6.5008,4.8195,9.4815,2.5239,3.8945,5.5805,7.433,9.0873,10.5154,3.6082,3.1647,7.635,5.8095,11.9662,7.8517,4.0902,1.9346,8.4088,3.3171,12.8351,4.1033,2.9615.5331,5.9672.7994,8.9795.7994,4.8954,0,9.7975-.7039,14.5029-2.0928,1.1669-.3491,2.2446-.7108,3.2912-1.0973,2.2193-.8247,4.4007-1.8075,6.4807-2.9174,5.9419-3.1969,11.1167-7.4715,15.3781-12.7163,2.8409-3.4816,5.2128-7.3444,7.0576-11.4857,1.9602-4.389,3.2921-9.0122,3.9509-13.7561.6474-4.5858.6598-9.2598.0381-13.8833l.0067-.0063Z" style="fill:#ef4623;"/><path d="M94.2718,12.3159c-.1207.0254-.2157.1268-.2409.2473-.0064.0444,0,.0825,0,.1712.2157,2.1057.4123,4.2302.5895,6.3106,0,.0634.0063.0951.019.1332.0317.0951.1081.1712.2094.203.0379.0127.0765.0127.1334.0127,1.6234.0824,3.2975.1966,5.1235.3551,1.0024.0761,2.0422.1775,3.1838.2917.0632.0064.1012.0127.1392.0127h.0638c.1392-.0317.2409-.1459.2473-.2854,0-.0507-.0127-.1014-.038-.1966-.0448-.1648-.089-.3234-.1334-.4883-.5009-1.8963-1.0783-3.8814-1.731-5.8919-.0127-.0444-.0254-.0698-.038-.0951-.0384-.0698-.1017-.1268-.184-.1522-.0253-.0064-.0506-.0127-.1017-.0191-2.2573-.2537-4.6416-.4567-7.0835-.6025-.0822,0-.1265-.0064-.1708,0l.0126-.0064Z" style="fill:#ef4623;"/><path d="M93.6565,9.2841l-.0127.0255.0254.0507.0823.0761.0379-.0191c2.1244.1205,4.2614.2791,6.3605.4883.0638,0,.1017.0128.1398.0128.0253,0,.0442,0,.0696-.0064.1461-.0317.2409-.1649.2409-.3107,0-.0508-.019-.1015-.0569-.2031-.3934-1.0717-.8184-2.1817-1.2681-3.2979-.019-.0448-.0258-.0629-.0385-.082-.0379-.0639-.1013-.1087-.1709-.1335-.019-.0067-.0442-.0124-.0954-.0191-1.6804-.2345-3.4241-.4252-5.3266-.5768-.0828,0-.1334-.0133-.1776,0-.1266.0248-.222.1268-.241.2536-.0063.0439,0,.0887.0064.1773.1461,1.186.2853,2.3846.4249,3.5706v-.0064Z" style="fill:#ef4623;"/><path d="M85.8194,12.0556c-1.6487,0-3.3166.0316-4.9526.0888-.0571,0-.0951,0-.1332.0127-.1014.0254-.1775.1015-.2093.1966-.0127.0318-.0127.0635-.0254.1332-.2537,2.4418-.4502,4.4587-.6151,6.3486,0,.0761-.0063.1141,0,.1585.0254.1205.1142.2156.2346.2473.0444.0127.0889.0127.1649.0064,1.7819-.0571,3.6463-.0889,5.5424-.0889,1.7627,0,3.5703.0317,5.5423.0889h.0759c.0322,0,.0638,0,.0891-.0064.1202-.0317.2094-.1268.2346-.2473.0063-.0444,0-.0825,0-.1648-.165-1.8836-.3554-3.9006-.6153-6.3423-.0063-.0634-.0127-.0951-.0254-.1332-.0316-.0951-.1138-.1712-.2093-.1966-.0379-.0127-.076-.0127-.1329-.0127-1.6361-.0571-3.3039-.0888-4.9464-.0888h-.0191Z" style="fill:#ef4623;"/><g style="clip-path:url(#clippath);"><rect x="16.0695" y="121.2759" width="2.7563" height="12.9834"/><path d="M10.7715,121.2759H3.1466c-.8721,0-1.6092.3076-2.2252.9249-.616.6195-.9214,1.359-.9214,2.2381v6.664c0,.8791.3054,1.6207.9214,2.2381.6181.6194,1.3531.9271,2.2252.9271h7.6249c.8739,0,1.6113-.3077,2.2249-.9271.6157-.6218.9217-1.3612.9217-2.2381v-1.1168h-2.7561v.4537c0,.3926-.1414.7329-.4165,1.0078-.2646.2662-.5963.3991-.9826.3991h-5.6104c-.3856,0-.722-.1329-.9974-.3926l-.0085-.0087c-.2603-.2771-.3905-.6152-.3905-1.0034v-5.3356c0-.3883.1323-.722.3968-.9882.2755-.277.6118-.4188,1.002-.4188h5.6101c.3884,0,.7201.1418.9826.4188.2752.2639.4162.5977.4162.9882v.4537h2.7565v-1.1169c0-.8791-.3057-1.6208-.9217-2.2381-.6157-.6217-1.3531-.9293-2.227-.9293Z"/><polygon points="54.8057 128.9063 63.5216 128.9063 63.5216 126.6115 61.8909 126.6137 52.0517 126.6137 52.0517 134.2594 64.0138 134.2594 64.0138 131.9646 54.8057 131.9646 54.8057 128.9063"/><polygon points="43.8041 130.6906 40.4169 121.2759 38.4932 121.2759 35.1059 130.6906 31.7401 121.2759 28.9143 121.2759 33.7201 134.2593 36.2225 134.2593 39.4431 125.5252 42.6829 134.2593 45.166 134.2593 49.9912 121.2759 47.1657 121.2759 43.8041 130.6906"/><path d="M149.9085,130.4333c0,.3926-.1405.7329-.4168,1.0078-.2643.266-.5957.3991-.9808.3991h-5.6119c-.3832,0-.7213-.1331-.9959-.3926l-.01-.0087c-.2612-.2792-.392-.6174-.392-1.0035v-9.1596h-2.757v9.8227c0,.8791.3063,1.6207.9223,2.2381.6178.6194,1.3528.9271,2.2249.9271h7.6255c.8706,0,1.6107-.3077,2.2249-.9271.6163-.6218.9208-1.3612.9208-2.2381v-9.8227h-2.7555v9.1574h.0015Z"/><path d="M167.8768,122.2685l-.0687-.0676c-.6142-.6195-1.3525-.9271-2.2249-.9271h-10.7712v2.4191h9.7653c.3884,0,.7198.1418.9826.4188.2761.264.4168.5977.4168.9882v1.1583c0,.3927-.1407.7329-.4168,1.0078-.2646.2661-.596.3992-.9826.3992h-9.7602v6.5965h2.7555v-4.1751h8.0157c.8721,0,1.6089-.3077,2.2249-.9271.616-.6174.9223-1.359.9223-2.2381v-2.4802c0-.8464-.2845-1.564-.857-2.1727h-.0018Z"/><path d="M133.8386,130.4354c0,.3926-.1405.7329-.415,1.0078-.2646.266-.5979.3991-.9829.3991h-5.6098c-.3869,0-.7232-.1331-.9977-.3926l-.0052-.0044-.0033-.0043c-.2612-.2771-.3917-.6153-.3917-1.0035v-5.3334c0-.3883.1323-.722.3969-.9882.2761-.277.6127-.4188,1.0026-.4188h5.6101c.3884,0,.7198.1418.9826.4188.2746.264.4168.5977.4168.9882v5.3334l-.0033-.0022ZM133.4488,121.2759h-7.6273c-.8688,0-1.6089.3076-2.2249.9249-.616.6217-.919,1.3612-.919,2.2381v6.6597c0,.8791.3063,1.6207.9223,2.2381.6178.6194,1.3543.9271,2.2249.9271h7.624c.8721,0,1.6122-.3077,2.2249-.9271.616-.6218.9223-1.3612.9223-2.2381v-6.6575c0-.8769-.3063-1.6208-.9223-2.2381-.6178-.6195-1.3543-.9271-2.2249-.9271Z"/><path d="M77.7019,130.5992c0,.338-.128.639-.3732.8856-.234.2355-.5246.3556-.8588.3556h-7.5229v-3.0605h7.5229c.3318,0,.6202.1177.8545.3532.2494.2357.375.528.375.866v.6022l.0024-.0022ZM68.947,123.6951h7.1738c.3339,0,.6245.1265.8588.3752.2473.2334.3729.5257.3729.8638v.6413c0,.3381-.1302.6391-.3729.8835-.2343.2356-.5249.3556-.8588.3556h-7.1738v-3.1193ZM79.9377,129.0263c-.3339-.53-.7719-.9118-1.3186-1.154l-.3947-.1745.3687-.2268c.4598-.2814.8243-.661,1.0931-1.1387v-.0044c.2797-.4733.4208-.9925.4208-1.5575v-.3316c0-.8769-.306-1.6186-.9217-2.2381-.6139-.6173-1.3534-.9271-2.2249-.9271h-24.9113v2.2948h14.1416v10.6887h11.1187c.8697,0,1.6092-.3075,2.2249-.9271.616-.6194.9217-1.3612.9217-2.2381v-.3512c0-.5453-.128-1.0448-.3859-1.5029l-.1323-.2116Z"/><path d="M118.1518,130.0189h.0085c-.0064,0-.0106.0022-.0173.0044h.0088v-.0044Z"/><path d="M117.6983,129.8945l.3926-.0959c.6896-.1681,1.2469-.5324,1.6828-1.0972.4468-.5694.6723-1.2129.6723-1.948v-2.3144c0-.8769-.3057-1.6186-.9217-2.2381-.616-.6195-1.3531-.9271-2.2252-.9271h-23.6944c-.8697,0-1.6092.3076-2.2249.9271-.6139.6195-.9217,1.3612-.9217,2.2381v6.6574c0,.8769.3057,1.6187.9217,2.2381.6157.6174,1.3531.9271,2.2249.9271h7.6249c.8718,0,1.6092-.3075,2.2249-.9271.6139-.6194.9221-1.3612.9221-2.2381v-3.597h-8.4274v1.8608h5.673v1.0753c0,.3927-.1411.7329-.4165,1.0078-.2643.2662-.5963.3993-.9823.3993h-5.6104c-.3857,0-.722-.1331-.9974-.3928l-.0085-.0087c-.2603-.2771-.3905-.6173-.3905-1.0035v-5.3334c0-.3883.1323-.722.3969-.9881.2755-.277.6139-.4188,1.002-.4188h12.1791l9.5008.0022c.3881,0,.7199.1418.9823.4188.2755.2639.4165.5977.4165.9882v.9925c0,.3926-.1411.7329-.4165,1.0078-.2646.2661-.5963.3992-.9823.3992h-9.7656v6.7622h2.7564v-4.341h5.4236l2.919,4.341h3.0928l-2.7522-4.0944-.2709-.2727v-.0065Z"/></g></g></g></svg>